<svg width="320" height="72" viewBox="0 0 320 72" fill="none" xmlns="http://www.w3.org/2000/svg">
  <rect width="320" height="72" rx="20" fill="url(#bg)"/>
  <rect x="0.75" y="0.75" width="318.5" height="70.5" rx="19.25" stroke="url(#frame)" stroke-width="1.5"/>
  <rect x="8" y="8" width="56" height="56" rx="18" fill="url(#panel)"/>
  <rect x="20" y="26" width="6" height="20" rx="3" fill="#FFF7EA"/>
  <rect x="30" y="20" width="6" height="32" rx="3" fill="#FFE0B4"/>
  <rect x="40" y="14" width="6" height="44" rx="3" fill="#FFF3D4"/>
  <rect x="50" y="24" width="6" height="24" rx="3" fill="#FFF7EA"/>
  <path d="M78 24H166.852" stroke="url(#line)" stroke-width="1.5" stroke-linecap="round"/>
  <path d="M78 48H199.241" stroke="url(#lineSoft)" stroke-width="1.5" stroke-linecap="round"/>
  <text x="78" y="45" fill="#4D3318" font-family="Arial, sans-serif" font-size="28" font-weight="700" letter-spacing="0.4">Voxtral TTS</text>
  <defs>
    <linearGradient id="bg" x1="0" y1="0" x2="320" y2="72" gradientUnits="userSpaceOnUse">
      <stop stop-color="#FFF8EE"/>
      <stop offset="0.55" stop-color="#F7E9D1"/>
      <stop offset="1" stop-color="#F1DFC2"/>
    </linearGradient>
    <linearGradient id="frame" x1="0" y1="0" x2="320" y2="72" gradientUnits="userSpaceOnUse">
      <stop stop-color="#E5C897"/>
      <stop offset="1" stop-color="#D8B57D"/>
    </linearGradient>
    <linearGradient id="panel" x1="8" y1="8" x2="64" y2="64" gradientUnits="userSpaceOnUse">
      <stop stop-color="#C77D1F"/>
      <stop offset="1" stop-color="#F49A28"/>
    </linearGradient>
    <linearGradient id="line" x1="78" y1="24" x2="166.852" y2="24" gradientUnits="userSpaceOnUse">
      <stop stop-color="#E2B56C" stop-opacity="0.9"/>
      <stop offset="1" stop-color="#71C3FF" stop-opacity="0"/>
    </linearGradient>
    <linearGradient id="lineSoft" x1="78" y1="48" x2="199.241" y2="48" gradientUnits="userSpaceOnUse">
      <stop stop-color="#D4A65D" stop-opacity="0.72"/>
      <stop offset="1" stop-color="#D4A65D" stop-opacity="0"/>
    </linearGradient>
  </defs>
</svg>
